HIERARCHY
ROOT joint_Root
{
	OFFSET 0.0 0.0 0.0
	CHANNELS 6 Xposition Yposition Zposition Zrotation Xrotation Yrotation 
	JOINT Hips
	{
		OFFSET -0.726466 93.3139 -2.00062
		CHANNELS 6 Xposition Yposition Zposition Zrotation Xrotation Yrotation 
		JOINT Spine
		{
			OFFSET 15.7357 0.0 0.0
			CHANNELS 6 Xposition Yposition Zposition Zrotation Xrotation Yrotation 
			JOINT Chest
			{
				OFFSET 8.98455 -0.406207 0.0
				CHANNELS 6 Xposition Yposition Zposition Zrotation Xrotation Yrotation 
				JOINT Neck
				{
					OFFSET 16.3773 0.0 0.0
					CHANNELS 6 Xposition Yposition Zposition Zrotation Xrotation Yrotation 
					JOINT Head
					{
						OFFSET 6.45672 0.0 0.0
						CHANNELS 6 Xposition Yposition Zposition Zrotation Xrotation Yrotation 
						End Site
						{
							OFFSET 0.0 0.0 0.0
						}
					}
				}
				JOINT Shoulder_L
				{
					OFFSET 12.9942 -0.242716 4.98039
					CHANNELS 6 Xposition Yposition Zposition Zrotation Xrotation Yrotation 
					JOINT UpperArm_L
					{
						OFFSET 5.34809 0.0 0.0
						CHANNELS 6 Xposition Yposition Zposition Zrotation Xrotation Yrotation 
						JOINT LowerArm_L
						{
							OFFSET 24.3286 1.87007e-05 0.0
							CHANNELS 6 Xposition Yposition Zposition Zrotation Xrotation Yrotation 
							JOINT Hand_L
							{
								OFFSET 22.2916 0.0 0.0
								CHANNELS 6 Xposition Yposition Zposition Zrotation Xrotation Yrotation 
								End Site
								{
									OFFSET 0.0 0.0 0.0
								}
							}
						}
					}
				}
				JOINT Shoulder_R
				{
					OFFSET 12.9945 -0.242716 -4.98039
					CHANNELS 6 Xposition Yposition Zposition Zrotation Xrotation Yrotation 
					JOINT UpperArm_R
					{
						OFFSET -5.34813 0.0 0.0
						CHANNELS 6 Xposition Yposition Zposition Zrotation Xrotation Yrotation 
						JOINT LowerArm_R
						{
							OFFSET -24.3289 0.000322201 0.0
							CHANNELS 6 Xposition Yposition Zposition Zrotation Xrotation Yrotation 
							JOINT Hand_R
							{
								OFFSET -22.2915 -0.000108084 0.0
								CHANNELS 6 Xposition Yposition Zposition Zrotation Xrotation Yrotation 
								End Site
								{
									OFFSET 0.0 0.0 0.0
								}
							}
						}
					}
				}
			}
		}
		JOINT UpperLeg_L
		{
			OFFSET -2.19248 -6.46944 0.0
			CHANNELS 6 Xposition Yposition Zposition Zrotation Xrotation Yrotation 
			JOINT LowerLeg_L
			{
				OFFSET 39.0811 0.0 -1.23785e-05
				CHANNELS 6 Xposition Yposition Zposition Zrotation Xrotation Yrotation 
				JOINT Foot_L
				{
					OFFSET 40.9854 0.0 -1.26872e-05
					CHANNELS 6 Xposition Yposition Zposition Zrotation Xrotation Yrotation 
					JOINT Toes_L
					{
						OFFSET 11.7543 0.0 0.0
						CHANNELS 6 Xposition Yposition Zposition Zrotation Xrotation Yrotation 
						End Site
						{
							OFFSET 0.0 0.0 0.0
						}
					}
				}
			}
		}
		JOINT UpperLeg_R
		{
			OFFSET -2.19251 6.46944 0.0
			CHANNELS 6 Xposition Yposition Zposition Zrotation Xrotation Yrotation 
			JOINT LowerLeg_R
			{
				OFFSET -39.0811 -0.00228153 -0.0401928
				CHANNELS 6 Xposition Yposition Zposition Zrotation Xrotation Yrotation 
				JOINT Foot_R
				{
					OFFSET -40.9854 0.0 0.0
					CHANNELS 6 Xposition Yposition Zposition Zrotation Xrotation Yrotation 
					JOINT Toes_R
					{
						OFFSET -11.7543 0.0 0.0
						CHANNELS 6 Xposition Yposition Zposition Zrotation Xrotation Yrotation 
						End Site
						{
							OFFSET 0.0 0.0 0.0
						}
					}
				}
			}
		}
	}
}
MOTION
Frames:	4
Frame Time:	0.0333333
0.000000 0.000000 0.000000 0.000000 0.000000 -0.000000 2.984370 92.110100 -1.677570 88.170400 -4.412480 4.057400 15.735700 0.000005 -0.000001 86.617400 84.989800 -90.067100 8.984550 -0.406207 -0.000000 2.233630 -0.424549 -6.884370 16.377300 -0.000001 -0.000001 -1.062270 -1.936520 1.797060 6.456720 -0.000001 -0.000000 -5.785600 -1.092350 -3.925880 12.994200 -0.242716 4.980390 -88.205200 -5.049790 -70.403900 5.348090 -0.000007 -0.000001 1.193560 78.819300 -48.492700 24.328600 0.000019 0.000005 10.705600 -0.068591 -90.362900 22.291600 -0.000001 0.000005 46.024900 5.485280 -36.288700 12.994500 -0.242716 -4.980390 92.494200 -5.556090 -65.776400 -5.348130 -0.000001 -0.000004 -53.006600 -58.854200 -83.030500 -24.328900 0.000322 -0.000009 -0.811301 -2.416440 -18.542700 -22.291500 -0.000108 -0.000004 19.943200 5.442310 -4.366990 -2.192480 -6.469440 -0.000000 -171.999000 -18.524400 -3.214710 39.081100 -0.000007 -0.000012 -0.161992 0.365570 23.899300 40.985400 -0.000006 -0.000013 -5.028140 -5.123120 -65.103500 11.754300 -0.000000 0.000003 -0.000121 -0.001208 -16.623700 -2.192510 6.469440 -0.000001 171.699000 20.211000 178.543000 -39.081100 -0.002282 -0.040193 0.037240 -0.096680 19.332000 -40.985400 0.000008 0.000006 -2.919830 2.428720 -60.146900 -11.754300 -0.000006 -0.000006 -0.004987 -0.061341 -19.068900
0.000000 0.000000 0.000000 0.000000 0.000000 -0.000000 2.927730 92.106200 -1.721250 88.121300 -4.499940 4.140300 15.735700 0.000005 -0.000001 87.666800 84.977300 -91.139000 8.984550 -0.406207 -0.000000 2.273250 -0.242498 -6.932630 16.377300 -0.000001 -0.000001 -0.939447 -1.952380 1.875630 6.456720 -0.000001 -0.000000 -5.702800 -1.167610 -4.027900 12.994200 -0.242716 4.980390 -88.206000 -5.045900 -70.398800 5.348090 -0.000007 -0.000001 0.846194 78.752300 -48.175800 24.328600 0.000019 0.000005 10.520800 -0.073736 -90.397100 22.291600 -0.000001 0.000005 45.886400 5.484280 -36.327800 12.994500 -0.242716 -4.980390 92.614900 -5.834080 -65.805700 -5.348130 -0.000001 -0.000004 -53.808300 -58.897800 -86.613600 -24.328900 0.000322 -0.000009 -0.894431 -2.325480 -21.022700 -22.291500 -0.000108 -0.000004 19.764900 5.446740 -4.524100 -2.192480 -6.469440 -0.000000 -171.862000 -18.611100 -3.142720 39.081100 -0.000007 -0.000012 -0.163601 0.368453 23.942500 40.985400 -0.000006 -0.000013 -5.056660 -5.060060 -65.097400 11.754300 -0.000000 0.000003 -0.000134 -0.001317 -16.627800 -2.192510 6.469440 -0.000001 171.758000 20.218900 178.565000 -39.081100 -0.002282 -0.040193 0.036267 -0.093625 19.385400 -40.985400 0.000008 0.000006 -2.922470 2.535610 -60.141300 -11.754300 -0.000006 -0.000006 -0.004668 -0.058216 -18.941600
0.000000 0.000000 0.000000 0.000000 0.000000 -0.000000 2.866120 92.108000 -1.773230 88.046500 -4.497320 4.199480 15.735700 0.000005 -0.000001 88.724300 84.953300 -92.210400 8.984550 -0.406207 -0.000000 2.332540 -0.059523 -6.964040 16.377300 -0.000001 -0.000001 -0.807777 -1.963470 1.956310 6.456720 -0.000001 -0.000000 -5.688450 -1.188240 -4.129480 12.994200 -0.242716 4.980390 -88.200000 -5.055580 -70.372800 5.348090 -0.000007 -0.000001 0.751203 78.671200 -48.159100 24.328600 0.000019 0.000005 10.690800 -0.068499 -90.362900 22.291600 -0.000001 0.000005 46.153700 5.487630 -36.197900 12.994500 -0.242716 -4.980390 92.731000 -6.087120 -65.779700 -5.348130 -0.000001 -0.000004 -54.626600 -58.944100 -90.287400 -24.328900 0.000322 -0.000009 -0.949737 -2.152810 -23.787500 -22.291500 -0.000108 -0.000004 19.746300 5.454210 -4.790850 -2.192480 -6.469440 -0.000000 -171.706000 -18.739300 -3.132990 39.081100 -0.000007 -0.000012 -0.164491 0.369666 23.987900 40.985400 -0.000006 -0.000013 -5.058850 -4.927230 -65.053200 11.754300 -0.000000 0.000003 -0.000136 -0.001339 -16.628600 -2.192510 6.469440 -0.000001 171.864000 20.310100 178.560000 -39.081100 -0.002282 -0.040193 0.037497 -0.096665 19.470500 -40.985400 0.000008 0.000006 -2.748480 2.596680 -60.137500 -11.754300 -0.000006 -0.000006 -0.004886 -0.060360 -19.028900
0.000000 0.000000 0.000000 0.000000 0.000000 -0.000000 2.815880 92.113400 -1.830150 88.006700 -4.451420 4.222480 15.735700 0.000005 -0.000001 89.761600 84.938500 -93.264600 8.984550 -0.406207 -0.000000 2.370230 0.122570 -7.001520 16.377300 -0.000001 -0.000001 -0.682197 -1.959450 2.030270 6.456720 -0.000001 -0.000000 -5.657580 -1.190420 -4.216680 12.994200 -0.242716 4.980390 -88.194900 -5.070820 -70.375700 5.348090 -0.000007 -0.000001 0.379095 78.601800 -47.854500 24.328600 0.000019 0.000005 10.604200 -0.068418 -90.365500 22.291600 -0.000001 0.000005 46.046100 5.485510 -36.280500 12.994500 -0.242716 -4.980390 92.830300 -6.300060 -65.747100 -5.348130 -0.000001 -0.000004 -55.402300 -58.905500 -94.076600 -24.328900 0.000322 -0.000009 -1.028240 -2.045680 -26.672800 -22.291500 -0.000108 -0.000004 19.790500 5.463740 -5.138180 -2.192480 -6.469440 -0.000000 -171.643000 -18.649400 -3.156940 39.081100 -0.000007 -0.000012 -0.162709 0.365691 23.986100 40.985400 -0.000006 -0.000013 -5.087700 -4.959230 -65.003400 11.754300 -0.000000 0.000003 -0.000130 -0.001286 -16.626600 -2.192510 6.469440 -0.000001 171.930000 20.431500 178.536000 -39.081100 -0.002282 -0.040193 0.036833 -0.094591 19.507600 -40.985400 0.000008 0.000006 -2.718320 2.665640 -60.093100 -11.754300 -0.000006 -0.000006 -0.004668 -0.058218 -18.941600
